<svg width="305" height="50" viewBox="0 0 305 50" fill="none" xmlns="http://www.w3.org/2000/svg">
<g clip-path="url(#clip0_1_2)">
<rect width="305" height="50" fill="white"/>
<rect x="130" width="175" height="50" fill="black"/>
<path d="M148.828 11.108H154.336L162.652 35.48L164.74 35.84V38H154.12V35.84L156.82 35.48L155.416 30.8H146.092L144.688 35.516L147.604 35.84V38H138.424L138.388 35.84L140.548 35.48L148.828 11.108ZM151.312 17.192L150.664 14.384L149.98 17.228L146.776 28.28H154.696L151.312 17.192ZM179.505 23.708C180.369 23.924 181.185 24.44 181.953 25.256C182.745 26.048 183.429 26.924 184.005 27.884C184.605 28.82 185.325 30.056 186.165 31.592C186.813 32.816 187.329 33.74 187.713 34.364C188.121 34.988 188.493 35.348 188.829 35.444L190.161 35.84V38H184.473C183.873 38 183.285 37.544 182.709 36.632C182.157 35.72 181.425 34.292 180.513 32.348C179.505 30.164 178.617 28.496 177.849 27.344C177.105 26.192 176.313 25.616 175.473 25.616H173.781V35.444L176.985 35.876V38H165.789V35.84L168.561 35.444V13.952L165.789 13.484V11.252H176.517V13.484L173.781 13.952V23.6H176.409L182.853 13.952L180.153 13.484V11.252H189.657V13.484L186.669 13.952L179.505 23.708ZM205.451 23.708C206.315 23.924 207.131 24.44 207.899 25.256C208.691 26.048 209.375 26.924 209.951 27.884C210.551 28.82 211.271 30.056 212.111 31.592C212.759 32.816 213.275 33.74 213.659 34.364C214.067 34.988 214.439 35.348 214.775 35.444L216.107 35.84V38H210.419C209.819 38 209.231 37.544 208.655 36.632C208.103 35.72 207.371 34.292 206.459 32.348C205.451 30.164 204.563 28.496 203.795 27.344C203.051 26.192 202.259 25.616 201.419 25.616H199.727V35.444L202.931 35.876V38H191.735V35.84L194.507 35.444V13.952L191.735 13.484V11.252H202.463V13.484L199.727 13.952V23.6H202.355L208.799 13.952L206.099 13.484V11.252H215.603V13.484L212.615 13.952L205.451 23.708ZM228.948 38.396C225.036 38.396 222.108 37.172 220.164 34.724C218.22 32.276 217.248 28.94 217.248 24.716C217.248 21.956 217.752 19.532 218.76 17.444C219.792 15.356 221.232 13.748 223.08 12.62C224.928 11.492 227.052 10.928 229.452 10.928C233.412 10.928 236.376 12.104 238.344 14.456C240.336 16.784 241.332 20.048 241.332 24.248C241.332 27.032 240.804 29.504 239.748 31.664C238.716 33.8 237.264 35.456 235.392 36.632C233.52 37.808 231.372 38.396 228.948 38.396ZM229.308 13.124C227.34 13.124 225.804 14.096 224.7 16.04C223.596 17.984 223.044 20.864 223.044 24.68C223.044 28.448 223.572 31.316 224.628 33.284C225.708 35.228 227.244 36.2 229.236 36.2C231.18 36.2 232.704 35.18 233.808 33.14C234.912 31.076 235.464 28.112 235.464 24.248C235.464 20.504 234.936 17.72 233.88 15.896C232.824 14.048 231.3 13.124 229.308 13.124ZM246.643 13.952L243.943 13.484V11.252H249.379C249.883 11.252 250.663 11.228 251.719 11.18C253.111 11.084 254.371 11.036 255.499 11.036C257.995 11.036 259.963 11.348 261.403 11.972C262.867 12.572 263.899 13.448 264.499 14.6C265.123 15.728 265.435 17.168 265.435 18.92C265.435 21.944 264.487 24.296 262.591 25.976C260.719 27.656 258.115 28.496 254.779 28.496C253.459 28.496 252.511 28.46 251.935 28.388V35.48L256.759 35.84V38H243.799V35.84L246.643 35.48V13.952ZM251.899 26.084C252.451 26.204 253.387 26.264 254.707 26.264C256.315 26.264 257.599 25.712 258.559 24.608C259.543 23.48 260.035 21.62 260.035 19.028C260.035 17.012 259.591 15.548 258.703 14.636C257.839 13.7 256.507 13.232 254.707 13.232C254.035 13.232 253.339 13.28 252.619 13.376C252.283 13.424 252.043 13.448 251.899 13.448V26.084ZM292.008 35.444C292.008 36.164 291.9 37.892 291.684 40.628C291.468 43.388 291.336 44.876 291.288 45.092H288.372C288.348 44.468 288.204 43.184 287.94 41.24C287.676 39.296 287.472 38.216 287.328 38H271.488C271.32 38.216 271.02 39.224 270.588 41.024C270.18 42.824 269.904 44.192 269.76 45.128H266.772L266.808 43.508C266.928 39.476 267.036 36.788 267.132 35.444H269.724C270.3 34.652 270.924 33.44 271.596 31.808C272.268 30.176 272.856 27.992 273.36 25.256C273.864 22.52 274.116 19.328 274.116 15.68V13.952L270.372 13.484V11.252H292.08V13.484L288.624 13.952V35.444H292.008ZM276.744 15.896C276.768 19.184 276.588 22.172 276.204 24.86C275.82 27.524 275.364 29.732 274.836 31.484C274.308 33.236 273.804 34.556 273.324 35.444H283.404L283.44 13.7H276.744V15.896Z" fill="white"/>
<rect x="0.5" y="0.5" width="129" height="49" fill="white" stroke="black"/>
<path d="M19.916 17.984V20.108L17.144 20.576V31.448L19.16 28.784L26.144 21.332V20.576L23.732 20.108V17.984H33.704V20.108L31.256 20.576V35.516L33.812 35.84V38H23.444V35.84L26.144 35.516V24.464L24.056 27.452L17.144 34.76V35.588L19.52 35.84V38H9.548V35.84L12.068 35.516V20.576L9.62 20.108V17.984H19.916ZM47.0893 17.984V20.108L44.4613 20.576V26.444H52.9573V20.576L50.3293 20.108V17.984H60.5533V20.108L58.0693 20.576V35.516L60.5893 35.84V38H50.2573V35.84L52.9573 35.516V28.82H44.4613V35.516L47.1253 35.84V38H36.8293V35.84L39.3853 35.516V20.576L36.8293 20.108V17.984H47.0893ZM76.1438 36.56C74.9678 37.808 73.3478 38.432 71.2838 38.432C69.8198 38.432 68.4998 38.084 67.3238 37.388C66.1718 36.692 65.2478 35.6 64.5518 34.112C63.8558 32.624 63.5078 30.752 63.5078 28.496C63.5078 26.36 63.8798 24.464 64.6238 22.808C65.3918 21.152 66.5078 19.856 67.9718 18.92C69.4358 17.984 71.1758 17.516 73.1918 17.516C73.6958 17.516 74.2238 17.588 74.7758 17.732C75.3278 17.852 75.7838 17.996 76.1438 18.164L76.0358 15.284V11.612L73.3358 11.18V9.272L79.8518 8.48L80.9318 9.128V15.284L80.8598 19.352C82.0838 18.128 83.6918 17.516 85.6838 17.516C87.1478 17.516 88.4678 17.864 89.6438 18.56C90.8198 19.256 91.7558 20.348 92.4518 21.836C93.1478 23.324 93.4958 25.196 93.4958 27.452C93.4958 29.588 93.1118 31.484 92.3438 33.14C91.5758 34.796 90.4598 36.092 88.9958 37.028C87.5558 37.964 85.8278 38.432 83.8118 38.432C83.2598 38.432 82.7198 38.372 82.1918 38.252C81.6878 38.132 81.2798 37.976 80.9678 37.784L81.0398 40.088V44.192L84.0278 44.66V46.748H73.1558V44.66L76.0358 44.192V40.088L76.1438 36.56ZM76.0358 20.756C75.8678 20.54 75.5678 20.324 75.1358 20.108C74.7038 19.892 74.1998 19.784 73.6238 19.784C72.2318 19.784 71.0798 20.48 70.1678 21.872C69.2798 23.24 68.8358 25.34 68.8358 28.172C68.8358 30.62 69.2438 32.48 70.0598 33.752C70.8758 35.024 71.9318 35.66 73.2278 35.66C73.8518 35.66 74.4038 35.576 74.8838 35.408C75.3638 35.24 75.7478 35.024 76.0358 34.76V20.756ZM80.9318 35.12C81.0998 35.336 81.4118 35.552 81.8678 35.768C82.3238 35.984 82.8278 36.092 83.3798 36.092C84.7718 36.092 85.9118 35.42 86.7998 34.076C87.7118 32.732 88.1678 30.644 88.1678 27.812C88.1678 25.364 87.7478 23.492 86.9078 22.196C86.0918 20.876 85.0358 20.216 83.7398 20.216C83.1158 20.216 82.5638 20.3 82.0838 20.468C81.6038 20.612 81.2198 20.816 80.9318 21.08V35.12ZM96.4559 28.028C96.4559 25.772 96.8999 23.852 97.7879 22.268C98.6999 20.684 99.9119 19.496 101.424 18.704C102.936 17.888 104.58 17.48 106.356 17.48C109.38 17.48 111.708 18.416 113.34 20.288C114.996 22.136 115.824 24.656 115.824 27.848C115.824 30.128 115.368 32.072 114.456 33.68C113.568 35.264 112.368 36.452 110.856 37.244C109.368 38.012 107.724 38.396 105.924 38.396C102.924 38.396 100.596 37.472 98.9399 35.624C97.2839 33.752 96.4559 31.22 96.4559 28.028ZM106.212 36.056C108.924 36.056 110.28 33.44 110.28 28.208C110.28 25.472 109.956 23.396 109.308 21.98C108.66 20.54 107.604 19.82 106.14 19.82C103.356 19.82 101.964 22.436 101.964 27.668C101.964 30.404 102.3 32.492 102.972 33.932C103.668 35.348 104.748 36.056 106.212 36.056Z" fill="black"/>
</g>
<defs>
<clipPath id="clip0_1_2">
<rect width="305" height="50" fill="white"/>
</clipPath>
</defs>
</svg>
